<?xml version="1.0" encoding="UTF-8"?><svg id="Lager_1" xmlns="http://www.w3.org/2000/svg" viewBox="0 0 237.36 101.44"><path d="M62.7,36.46c-1.07-1.51-2.78,1.03-4,1.39-1.39-.16-1.81,1.56-3.13,1.37-.42-.03-.76.06-1,.41-.87,1.56-2.22,2.42-3.65,3.39.29.22.56.43.88.66-1.15.87-2.67,2.03-4.15,1.64-.04-.03-.31.12-.39.25-.16.25-.32.32-.6.2-1.19-.25-1.92,1.46-2.84,2.05-.11.11-.23.32-.2.44.18.93-1.22,2.58-1.98,1.49-.58-.79-2.29.54-3.26.49-.34.18-.56.82-.84.83-2.48.34-3.28,3.38-5.81,3.55-.46.07-.83.18-1.15.58-.88,1.02-2.43.92-3.38,1.86-.94-.3-1.44.47-2.11.85-.72.21-1.58.2-2.34.34-1.08-.34-2.41-.18-3.45.37-.98.67-2.11.28-3.19.29-.14,0-.3.02-.4-.05-.81-.68-1.51.87-2.21-.13-.43-.6-.48-.56-1.04.18-1.18-.22-.49-2.52-1.67-2.02-.55.27-.8-.09-.9-.36-.56-1.68-2.55-2-3.23-3.49-1.18-.8-2.16-1.18-2.45-2.77-.91-2.1-.67-4.54-1.68-6.5-.09-.12-.07-.4,0-.57.26-.58.37-1.24.92-1.66.37-.28.49-.56.1-.94-.5-.99.23-2.29.33-3.35.44-5.08,3.58-9.49,6-13.63,1.43-1,2.23-2.39,2.75-4.02,1.22-1.58,2.54-3.16,3.96-4.5.79-2.24,3.91-2.82,5.65-4.34.67-.41.89-.38,1.21.32.25.57.59.7,1.18.77,3.09.29,2.83,4.42,5.57,5.37,1.36-.52.99,1.21,2.04,1.66.61.65.07.89-.31,1.46-.28,1.59-1.58,2.51-2.48,3.68-.62.74-1.81,1.23-1.79,2.35,0,.49-.24.75-.52,1.06-3.4,3.92-6.25,8.69-7.89,13.65,2.71.02,4.56-2.41,6.88-3.5,5.74-3.16,11.17-6.83,16.56-10.56,8.05-4.33,15-10.25,23.15-14.39,5.85-3.75,12.28-6.72,18.64-9.57,1.2-1.07,2.23,1.79,3.24-.39,6.56.47,2.4,2.54,4.81,2.84.85.26,1.49,1.09,2.52,1.03.1,0,.27.26.26.39-.03.63.39.96.74,1.41.4.51,1.22.62,1.3,1.45.02.16.51.31.81.4,1.41.91.35,3.45.36,4.9.15.76,1.45,1.39.71,2.16-.78,1.04-.93,2.29-1.4,3.43-3.02,5.92-7.11,11.12-10.06,17.05,2.26-.2,3.57-2.04,5.23-3.3,2.12-1.99,4.88-3.15,6.91-5.21.42-.41.77-.89,1.48-.81,1.83-1.23,3.8-2.54,5.55-3.94,3.33-2.68,7.82-5.25,11.77-6.13,1.22.82,6.42-1.09,6.22,1.21-.11,1.39,1.82,1.16,2.31,2.32.32.38.88.62,1.16,1.06.21.31.28.69.78.72.5.23.23,1.22,1.01,1.12,3.05.58.12,3.88.6,5.81.16.8.53,1.82-.01,2.7.01,4.56,8.66-5.42,10.38-6.07,5.12-2.89,28.48-22.81,33.26-18.52.29.47.78.37,1.22.22.5-.17.78-.09,1.06.45.47,1.21,1.85,1.64,2.69,2.6.19.14.52.24.73.17,1.14-.21.45,1.75,1.6,2.29.7,1.11,1.74,2.48,1.87,3.78-.32.67-.13,1.13.51,1.53-.54,4.25-3.19,7.53-5.41,11.17-4.01,7.53-10.14,13.77-13.32,21.81.24.27.43.16.69-.04,3.37-2.01,5.54-5.22,8.67-7.48,3.98-4.38,9.12-7.24,12.71-11.97,8.36-6.8,16.71-14.37,25.93-20.41,4.29-1.41,7.84-5.53,12.29-5.92.03.84-.83,1.59-.63,2.4,1.22,2.21,1.48,2.36,4.01,2.2,1.39-.49,1.4,1.22,2.47,1.05,1.13-.23,1.17.96,1.09,1.7,1.09.62.63,1.96,1.45,2.67,1.39,1.59-1.24,2.75-2.09,3.85-.59.47-.7,1.18-1.41,1.53-.78.5-.23,2.09-1.25,2.33-1.02,1.45-2.76.34-3.91,1.33-.97,1.28-3.11,1.63-3.43,3.35-.23.88-1.83.92-2.52,1.67-1.05.41-.79,1.6-1.74,2.2-.71.41-.88.97-1.78.46-.62,2.51-4.22,1.39-4.21,3.5-.01.64-.62.67-.75,1.11-.55-.17-.58.29-.77.6-.72,1.48-1.93-.32-3.65,1.47-1.05.91-2.33,1.69-2.74,3.06-2.56,1.12-4.49,2.87-6.04,5.18,0,1.64-2.75.85-2.33,2.6.04.12-.16.44-.21.43-.68-.13-.65.5-.95.79-.38.36-.93.59-1.45.73-1.43.16-.87,2.13-2.4,1.84-.13,0-.34.01-.37.09-.37.83-1.55.94-1.72,1.99-.04.26-.55.56-.88.63-2.15.76-2.43,3.5-4.54,4.41-.52.29-.95.55-.91,1.22-1.22,1.06-2.98,1.64-4.32,2.6-2.02,2.33-4.32,4.51-6.35,6.67-.49,1.47-1.86,2.79-3.45,2.43-1.42,2.56-3,1.21-3.36,2.87-.22.76-1.3,1-1.8,1.52-.68.76-1.57,1.37-1.81,2.46-1.6,1.52-3.96,2.3-5.48,4.03-.76.64-.66,2.64-1.96,2.58-3.85.28-7.13,3.07-11.2,1.97-1.52.02-.03-1.82-1.34-2.3-1.95-1.08-4.01-3.31-5.59-4.15-1.91-.15.14-4.31-1.48-5.54-.94-.92.55-2.06.41-3.19,1.94-4.3,3.93-8.69,5.76-13.06.69-3.55,3.92-6.26,5.23-9.62-.34-1.45,1.18-2.61,1.15-4.01-.44-.85.93-1.32.47-2.31-.4.05-.83.3-1.12.48-.48-.1-.88-.02-1.19.37-1.93-.33-2.03,2.6-3.58,3.23-1.74,1.62-4.16,2.5-5.77,4.3-.15.9-.87,1.12-1.47,1.61-1.41,2.49-4.66,3.28-6.13,5.79-1.14.24-1.22,1.4-1.84,2.08-1.9,1.54-3.65,3.21-5.21,5.1-.66.68-.35,1.98-1.57,2.08,0,.95-1.38.91-1.39,1.9-.33.51-1.28.72-1.58,1.4-1.3,2.95-4.5,3.98-6.32,6.5-2.27,2.41-3.26,5.66-6.01,7.66-1.91,1.03-2.56,3.12-4.18,4.41-.78.24-1.53-.09-2.23.64-.9.98-1.94,1.83-2.74,2.9-.13.25-.37.46-.84.23-.4-.2-.99,0-1.49,0-1.89-.35-2.29-2.72-4.04-3.48-1.27-1.11-3.29-.53-4.11-2.37-.43-.5-.77-1.15-1.26-1.58-.93.05-1.03-.9-1.57-1.32-.73-.43-.04-1.24-.25-1.9-.27-.69-.4-1.3.11-2,.73-.86.21-2.77,1.73-2.88-.49-1.55,1.28-2.28,1.61-3.67.48-1.6,1.91-2.77,2.4-4.28.47-2.87,3.17-4.9,4.6-7.37,1.34-2.49,2.7-4.92,4.39-7.21.77-1.76,2.44-2.99,3.3-4.61.18-.57-.31-.87-.26-1.49-1.32-1.98-6.3,5.04-7.44,6.13-2.4.39-2.95,1.79-4.87,2.96-2.57,1.29-2.19,1.46-2.99,3.97-.37-.25-.64-.43-1-.67-1.53,1.4-3.43,2.53-4.64,4.22-.29.29-.43.83-1.02.69-1.03.83-2.22,1.89-2.74,3.11.43.78-1.01,2.38-1.7,2.05-.35-.17-.61.03-.76.34-.33.86-1.74.24-1.89,1.32-.44,1.28-2.11.49-2.72,1.65-.87,1.27-3.25,2.39-2.81,4.1-1.24.55-1.58,1.8-2.96,2.25-2.84,1.67-5.58,3.63-7.95,5.85-.33.26-.8.48-1.2.47-1.34.12-1.73,1.64-2.63,2.42-.28.31-.56.54-.57,1.04-.49.9-1.91,1.52-2.81,1.93-.56,1.45-2.26,1.54-3.09,2.77-.63.19-.84-.92-1.51-.4-1.47.96-1.25-1.2-2.46-1.29-1.62-.29-1.57-2.86-3.26-3.72-.97-1.22-2.6-1.58-3.53-2.73-.28-.54-.6-1.44-1.64-1.03-2.53-4.56,8.96-16.49,11.74-20.56.16-.54.35-1.04.98-1.23,1.09-1.79,2.16-3.79,3.39-5.57,1.77-1.6,3.28-3.46,4.2-5.7,2.7-4.16,6.52-7.68,9.01-11.84-.08-.74.32-1.14.87-1.36.87-.49,1.19-1.64,1.6-2.49.06-.97,1.37-1.04,1.09-2.16-.41-1.6,1.85-1.46,2.52-2.7.48-.8-1.5-.65-.61-1.54,1.63-2.95-2.45.36-2.76,1.38Z"/></svg>